<svg id="Fill" xmlns="http://www.w3.org/2000/svg" viewBox="0 0 100 100"><defs><style>.cls-1{fill:#da3854;}</style></defs><path class="cls-1" d="M62.08,50.67H54.14V46.5h16V29.11A8.16,8.16,0,0,0,62,20.92H52.22V14H47.78v6.92H38a8.16,8.16,0,0,0-8.14,8.19V46.5h16v4.17H37.92c-8,0-14.92,5.9-14.92,10.73V86H77V64.39C77,56.82,70.31,50.67,62.08,50.67ZM43.75,35.18a3.11,3.11,0,1,1,3.09-3.11A3.1,3.1,0,0,1,43.75,35.18Zm12.5,0a3.11,3.11,0,1,1,3.08-3.11A3.1,3.1,0,0,1,56.25,35.18ZM40.85,71.59a2.3,2.3,0,1,1,2.3,2.31A2.3,2.3,0,0,1,40.85,71.59Zm2.3-6.37a2.32,2.32,0,1,1,2.29-2.32A2.31,2.31,0,0,1,43.15,65.22Zm8.37,0V60.86H59.8v4.36Zm8.28,3.87V77H51.52V69.09Z"/></svg>
